<svg width="40" height="40" viewBox="0 0 40 40" fill="none" xmlns="http://www.w3.org/2000/svg">
<rect width="40" height="40" rx="20" fill="white"/>
<path d="M10.8008 23.5789C10.0833 23.9931 9.83753 24.9105 10.2517 25.6279C10.666 26.3454 11.5833 26.5912 12.3008 26.177L11.5508 24.8779L10.8008 23.5789ZM29.8977 15.5101C30.1121 14.7099 29.6373 13.8874 28.8371 13.6729L15.7971 10.1789C14.9969 9.96447 14.1744 10.4393 13.96 11.2395C13.7455 12.0397 14.2204 12.8623 15.0206 13.0767L26.6117 16.1825L23.5059 27.7736C23.2915 28.5738 23.7664 29.3963 24.5666 29.6107C25.3668 29.8251 26.1893 29.3503 26.4037 28.5501L29.8977 15.5101ZM11.5508 24.8779L12.3008 26.177L29.1988 16.4209L28.4488 15.1218L27.6988 13.8228L10.8008 23.5789L11.5508 24.8779Z" fill="#2D3748"/>
</svg>
