<svg width="39" height="38" viewBox="0 0 39 38" fill="none" xmlns="http://www.w3.org/2000/svg">
<path d="M24.5631 28C17.0856 28 11.002 21.5564 11 13.639C11.002 11.632 12.5455 10 14.4369 10C14.6313 10 14.8237 10.0173 15.0079 10.052C15.4132 10.1235 15.7981 10.2688 16.1522 10.4877C16.2034 10.5202 16.2382 10.5722 16.2464 10.6329L17.0365 15.9061C17.0467 15.9689 17.0283 16.0296 16.9894 16.0751C16.5534 16.5866 15.9966 16.9551 15.3764 17.1393L15.0776 17.2282L15.1901 17.5338C16.2095 20.282 18.2851 22.4775 20.8827 23.5612L21.1713 23.6826L21.2553 23.3662C21.4292 22.7095 21.7772 22.1199 22.2603 21.6583C22.2951 21.6236 22.3422 21.6063 22.3893 21.6063C22.3995 21.6063 22.4098 21.6063 22.422 21.6084L27.4023 22.445C27.4616 22.4559 27.5108 22.4905 27.5415 22.5447C27.7462 22.9197 27.8833 23.3293 27.9529 23.7585C27.9857 23.9492 28 24.1508 28 24.361C28 26.3658 26.4586 27.9978 24.5631 28Z" fill="#FDFDFD"/>
<path d="M38.9266 17.3054C38.5134 12.6019 36.3739 8.23855 32.9024 5.02046C29.41 1.78336 24.8792 0 20.1408 0C9.74109 0 1.27953 8.5238 1.27953 19C1.27953 22.516 2.2423 25.9412 4.06508 28.9247L0 37.9894L13.0154 36.5928C15.2787 37.5267 17.6741 38 20.1387 38C20.7869 38 21.4518 37.9662 22.1188 37.8965C22.7061 37.8331 23.2998 37.7401 23.8829 37.6218C32.592 35.849 38.9497 28.0626 39 19.1014V19C39 18.4295 38.9748 17.859 38.9245 17.3054H38.9266ZM13.5167 32.614L6.31578 33.3873L8.46579 28.5887L8.03578 28.0077C8.00431 27.9654 7.97286 27.9232 7.9372 27.8746C6.07037 25.2777 5.08449 22.2096 5.08449 19.0021C5.08449 10.6389 11.8386 3.83508 20.1408 3.83508C27.9186 3.83508 34.5112 9.94795 35.1468 17.7512C35.1803 18.1696 35.1992 18.5901 35.1992 19.0042C35.1992 19.1226 35.1971 19.2388 35.195 19.3634C35.0356 26.3595 30.1839 32.3013 23.3962 33.8142C22.8781 33.9304 22.3474 34.0191 21.8189 34.0762C21.2693 34.1396 20.7051 34.1713 20.145 34.1713C18.1502 34.1713 16.2121 33.7825 14.3809 33.0133C14.1774 32.9309 13.9782 32.8422 13.7915 32.7513L13.5188 32.6182L13.5167 32.614Z" fill="#FDFDFD"/>
</svg>
